# xmcd
#
# Track frame offsets: 
#        150
#        21741
#        29129
#        47781
#        68771
#        81575
#        98690
#        118400
#        127957
#        142829
#        176403
#
# Disc length: 3484 seconds
#
# Revision: 3
# Processed by: cddbd v1.4PL0 Copyright (c) Steve Scherf et al.
# Submitted via: ExactAudioCopy v0.95a3
#
DISCID=9f0d9a0b
DTITLE=Marilyn Manson - Dancing With the Antichrist
DYEAR=2002
DGENRE=Rock
TTITLE0=My Monkey (Strange Daze Remix)
TTITLE1=Peculiar
TTITLE2=Good Son
TTITLE3=Man Son Of Sam (Persian Mix)
TTITLE4=Rock N Roll
TTITLE5=Same Strange Dogma (At Home Mix)
TTITLE6=TV TV
TTITLE7=Standing In Line
TTITLE8=Telephone (Reversed Charge Remix)
TTITLE9=6 Hard Months
TTITLE10=Data tack
EXTD=
EXTT0=
EXTT1=
EXTT2=
EXTT3=
EXTT4=
EXTT5=
EXTT6=
EXTT7=
EXTT8=
EXTT9=
EXTT10=
PLAYORDER=
